<svg xmlns="http://www.w3.org/2000/svg" width="512" height="512" fill-rule="evenodd" clip-rule="evenodd" image-rendering="optimizeQuality" shape-rendering="geometricPrecision" text-rendering="geometricPrecision" viewBox="0 0 512000 512000"><path fill="#2b2a29" fill-rule="nonzero" d="M192896 312875l-18147 40354c-722 1444-1625 2663-2708 3657-1083 993-3340 1489-6771 1489-2528 0-4333-632-5417-1896-1083-1264-1625-2708-1625-4333 0-723 91-1264 272-1625l541-1083 86397-187959c1264-2529 2528-4469 3791-5824 1264-1354 3521-2030 6771-2030 3070 0 5327 722 6770 2166 1444 1444 2619 3159 3521 5146l86667 188501c0 361 91 813 272 1354 360 1084 541 1897 541 2438 0 904-270 1987-813 3250-541 1264-2617 1896-6229 1896-2889 0-5055-542-6500-1625-1444-1083-2438-2257-2979-3521l-18147-40354H192895zm6770-14896h112667l-56333-124855-56334 124855z"/></svg>